<svg width="187" height="32" viewBox="0 0 187 32" xmlns="http://www.w3.org/2000/svg">
	<g fill="#FF0017">
		<path d="M72.7236 16.0114L62.2057 9.97189C61.9753 9.84393 61.6938 9.99748 61.6938 10.279V25.2753C61.6938 25.5312 61.8474 25.7871 62.0777 25.9151L72.6212 31.9546C72.8515 32.0825 73.133 31.929 73.133 31.6475V16.6511C73.1074 16.3952 72.9539 16.1393 72.7236 16.0114Z"></path>
		<path d="M58.3413 7.77065L47.8233 1.73116C47.593 1.60321 47.3115 1.75675 47.3115 2.03825V25.3773C47.3115 25.5564 47.4651 25.7356 47.6442 25.7356H58.3924C58.5716 25.7356 58.7251 25.582 58.7251 25.3773V8.41042C58.7251 8.15451 58.5972 7.8986 58.3413 7.77065Z"></path>
		<path d="M33.4413 31.9544L43.9848 25.9149C44.2151 25.7869 44.3686 25.531 44.3686 25.2751V0.349452C44.3686 0.0935416 44.0871 -0.0855957 43.8568 0.0423595L33.3133 6.08184C33.083 6.2098 32.9294 6.46571 32.9294 6.72162V31.6473C32.9294 31.9288 33.2109 32.0823 33.4413 31.9544Z"></path>
		<path d="M76.0503 18.519V25.3774C76.0503 25.5565 76.2038 25.7357 76.4086 25.7357H88.3596C88.7178 25.7357 88.8458 25.275 88.5387 25.0959L76.5877 18.2375C76.3574 18.084 76.0503 18.2375 76.0503 18.519Z"></path>
		<path d="M29.4491 8.28243L0.172933 25.0446C-0.13416 25.2237 -0.00620446 25.6843 0.35207 25.6843H29.6282C29.8074 25.6843 29.9865 25.5308 29.9865 25.3261V8.58952C29.9609 8.30802 29.6794 8.15448 29.4491 8.28243Z"></path>
	</g>
	<g fill="#2D2F33">
		<path d="M106.197 4.3418H96.1137C96.0113 4.3418 95.9346 4.41857 95.9346 4.52093V27.86C95.9346 28.0135 96.0881 28.0903 96.2161 28.0135L99.85 25.915C99.9268 25.8639 99.9524 25.8127 99.9524 25.7103V20.0803H106.222C107.578 20.0803 111.827 19.5429 111.827 12.2494C111.801 5.4678 108.449 4.36739 106.197 4.3418ZM105.557 16.5487H99.9524V8.334H105.557C106.708 8.334 107.911 9.38323 107.911 12.403C107.911 15.3971 106.811 16.5487 105.557 16.5487Z"></path>
		<path d="M165.389 24.0723C165.389 24.1746 165.465 24.2514 165.568 24.2514H169.202C169.304 24.2514 169.381 24.1746 169.381 24.0723V6.74712C169.381 6.67035 169.33 6.59357 169.278 6.54239L165.645 4.44393C165.517 4.36715 165.363 4.46952 165.363 4.59747V24.0723H165.389Z"></path>
		<path d="M123.087 8.41064H114.821C114.718 8.41064 114.642 8.48742 114.642 8.58978V11.6607C114.642 11.7631 114.718 11.8398 114.821 11.8398H123.087C123.573 11.8398 124.034 11.9678 124.034 12.6588V14.5525H118.429C115.128 14.5525 113.951 15.6273 113.951 18.5447V19.5427C113.951 23.1767 115.384 24.1491 118.915 24.1491H127.872C127.975 24.1491 128.051 24.0724 128.051 23.97V12.9914C128.051 9.3831 126.644 8.41064 123.087 8.41064ZM118.659 20.7199C118.173 20.7199 117.713 20.592 117.713 19.901V18.2376C117.713 17.5722 118.173 17.4699 118.685 17.4699H124.034V20.7199H118.659Z"></path>
		<path d="M185.657 20.7199H177.391C176.905 20.7199 176.444 20.592 176.444 19.901V18.0073H182.049C185.35 18.0073 186.527 16.9325 186.527 14.0151V13.017C186.527 9.3831 185.094 8.41064 181.562 8.41064H177.314C173.834 8.41064 172.426 9.3831 172.426 12.9914V19.5683C172.426 23.2023 173.859 24.1747 177.391 24.1747H185.657C185.759 24.1747 185.836 24.0979 185.836 23.9956V20.9247C185.836 20.8223 185.759 20.7199 185.657 20.7199ZM177.391 11.891H181.818C182.304 11.891 182.765 12.019 182.765 12.7099V14.3734C182.765 15.0387 182.304 15.1411 181.793 15.1411H176.444V12.6843C176.444 12.019 176.905 11.891 177.391 11.891Z"></path>
		<path d="M145.428 13.017C145.428 9.3831 143.995 8.41064 140.463 8.41064H131.532C131.429 8.41064 131.353 8.48742 131.353 8.58978V23.97C131.353 24.0724 131.429 24.1491 131.532 24.1491H135.166C135.268 24.1491 135.345 24.0724 135.345 23.97V11.8654H140.437C140.924 11.8654 141.384 11.9934 141.384 12.6843V23.9956C141.384 24.0979 141.461 24.1747 141.563 24.1747H145.197C145.3 24.1747 145.376 24.0979 145.376 23.9956V13.017H145.428Z"></path>
		<path d="M158.044 22.588V24.149V25.7868C158.044 26.5034 157.455 27.092 156.739 27.092H150.367C150.264 27.092 150.188 27.1688 150.188 27.2711V29.779C150.188 29.8814 150.264 29.9582 150.367 29.9582H157.711C160.117 29.9582 162.087 28.0133 162.087 25.5821V21.769L158.044 22.588Z"></path>
		<path d="M148.243 17.7005L152.184 18.3914C152.081 17.8284 152.03 17.1375 152.03 16.3442C152.03 12.787 152.926 11.8913 154.18 11.8913H158.044V19.4151L162.062 20.106V8.61566C162.062 8.5133 161.985 8.43652 161.883 8.43652H153.642C151.365 8.46211 148.089 9.56253 148.089 16.3442C148.089 16.8304 148.115 17.291 148.14 17.7005H148.243Z"></path>
		<path d="M148.14 18.3145V24.0213L163.009 20.9247C163.034 20.9247 163.034 20.8736 163.009 20.8736L148.14 18.3145Z" fill="#FF0017"></path>
	</g>
</svg>